<svg width="148" height="171" viewBox="0 0 148 171" fill="none" xmlns="http://www.w3.org/2000/svg">
  <path d="M97.7907 158.667C91.6438 162.277 85.618 165.814 79.5975 169.361C75.9036 171.537 72.2151 171.55 68.5195 169.376C47.6367 157.088 26.7621 144.785 5.86386 132.525C1.88479 130.19 0.00510499 126.794 0.0105722 122.129C0.0391397 97.7516 0.0324728 73.374 1.57374e-05 48.9964C-0.00627153 44.2737 1.87114 40.8381 5.93968 38.4565C26.9042 26.1848 47.8241 13.8342 68.7725 1.53383C72.2664 -0.517725 75.8527 -0.507978 79.3419 1.54335C100.336 13.886 121.309 26.2668 142.306 38.6055C146.147 40.8625 148.006 44.1368 148 48.6663C147.965 73.304 147.967 97.9418 147.99 122.579C147.994 127.044 146.083 130.287 142.34 132.487C127.532 141.192 112.723 149.895 97.7907 158.667ZM49.2384 58.1085C49.2383 57.6535 49.3014 57.1875 49.2274 56.7453C48.8434 54.4521 49.7761 53.1501 51.7963 52.0035C59.821 47.4487 67.7418 42.7032 75.6778 37.9877C77.9002 36.6672 78.5496 34.49 77.4501 32.559C76.3491 30.6253 74.1635 30.091 71.9679 31.3749C62.7827 36.7461 53.6213 42.1598 44.4524 47.5599C42.6464 48.6235 41.7344 50.1617 41.7364 52.349C41.7591 77.0508 41.7579 101.753 41.7394 126.454C41.7377 128.606 42.5187 130.21 44.3626 131.291C48.6757 133.82 52.974 136.375 57.2856 138.906C58.9729 139.897 60.6938 139.918 62.3849 138.922C71.5544 133.524 80.721 128.12 89.8806 122.704C91.3547 121.833 92.2874 120.529 92.2981 118.752C92.3315 113.162 92.3587 107.572 92.286 101.982C92.257 99.7574 90.497 98.2831 88.3415 98.4058C86.1973 98.5279 84.8424 100.094 84.8119 102.687C84.7631 106.847 84.7709 111.008 84.8205 115.168C84.8342 116.316 84.5593 117.076 83.5025 117.69C75.9647 122.067 68.4755 126.532 60.9256 130.887C60.3568 131.215 59.3021 131.177 58.7052 130.858C56.2207 129.532 53.8808 127.921 51.3769 126.639C49.7282 125.795 49.1872 124.727 49.1932 122.85C49.2617 101.398 49.2384 79.9465 49.2384 58.1085ZM91.8823 57.3617C90.316 56.3494 88.6205 55.5514 86.8476 56.5565C81.8879 59.3682 76.9555 62.2355 72.0971 65.2238C70.3502 66.2982 70.0301 68.5307 71.0174 70.2234C72.0094 71.9243 73.9627 72.5206 75.8591 71.6849C76.2678 71.5049 76.6596 71.2805 77.0459 71.0531C80.3048 69.1348 83.6057 67.2847 86.7958 65.2541C88.1337 64.4025 89.1163 64.4733 90.4245 65.3012C93.6201 67.3236 96.9151 69.1839 100.183 71.0869C103.879 73.2394 106.697 71.6312 106.725 67.3366C106.757 62.5267 106.686 57.7155 106.765 52.9067C106.807 50.3591 105.828 48.585 103.648 47.3398C99.6427 45.0507 95.6563 42.7224 91.7244 40.3049C89.5757 38.9837 87.6332 38.9942 85.4586 40.2959C76.9332 45.3993 68.3961 50.4862 59.768 55.406C57.0798 56.9388 56.0564 58.9197 56.0687 62.0022C56.1424 80.3972 56.0867 98.7927 56.0785 117.188C56.0782 117.902 56.0674 118.623 56.1504 119.33C56.481 122.145 59.0295 123.793 61.4453 122.464C66.4385 119.716 71.3385 116.786 76.2072 113.813C78.0395 112.694 78.4324 110.449 77.4097 108.676C76.3966 106.921 74.3277 106.263 72.4233 107.284C70.1104 108.525 67.8853 109.934 65.612 111.252C65.0381 111.585 64.4253 111.848 63.7517 112.182C63.6658 111.714 63.601 111.526 63.6009 111.337C63.5935 95.347 63.5772 79.3566 63.6375 63.3666C63.64 62.6991 64.2 61.755 64.773 61.4108C72.3568 56.8553 79.9811 52.3691 87.6302 47.928C88.1146 47.6467 89.0151 47.6414 89.5047 47.9134C92.472 49.5618 95.383 51.3165 98.2926 53.0705C98.6435 53.282 99.1109 53.6953 99.1207 54.0274C99.1915 56.4403 99.1588 58.8564 99.1588 61.6128C96.5392 60.083 94.3334 58.7948 91.8823 57.3617ZM81.0317 85.2506C78.3273 86.8485 75.585 88.3849 72.9402 90.0793C72.0708 90.6363 71.2129 91.4843 70.777 92.4084C70.0813 93.8833 70.5279 95.3547 71.7324 96.4736C73.1402 97.7813 74.7 97.832 76.3191 96.8803C79.9665 94.7363 83.6272 92.6151 87.2461 90.4223C88.1737 89.8602 88.8979 89.7807 89.8622 90.381C92.529 92.0411 95.3047 93.5219 97.9446 95.223C98.5522 95.6146 99.1354 96.6014 99.142 97.3199C99.2227 106.161 99.1757 115.004 99.2169 123.845C99.2221 124.973 98.8432 125.601 97.8869 126.145C94.2101 128.236 90.5583 130.375 86.939 132.568C84.859 133.828 84.2781 135.994 85.3637 137.899C86.4325 139.774 88.5966 140.352 90.6885 139.151C95.1908 136.565 99.646 133.895 104.123 131.263C105.887 130.226 106.735 128.667 106.735 126.603C106.733 115.94 106.737 105.278 106.733 94.6156C106.733 92.5592 105.876 90.9983 104.107 89.961C99.7941 87.4305 95.4842 84.894 91.1798 82.3479C89.4845 81.3452 87.7888 81.3146 86.0875 82.29C84.4749 83.2145 82.8774 84.1664 81.0317 85.2506Z" fill="#F09518"/>
</svg>
