<svg width="430" height="56" viewBox="0 0 430 56" fill="none" xmlns="http://www.w3.org/2000/svg">
  <path d="M-1.35754 28.9887C2.42609 28.1479 8.13268 18.1449 10.5682 15.1215C13.4238 11.5767 16.3008 8.00196 18.9578 4.30514C22.2463 -0.270127 21.1073 3.22475 21.1073 7.35591C21.1073 17.2423 19.8592 27.0497 19.8592 36.893C19.8592 40.437 29.0311 23.7364 29.8436 21.5698C32.9006 13.4176 34.0285 6.72123 36.0838 19.2817C36.3678 21.017 40.1693 42.6259 42.6014 40.9144C50.5437 35.3254 52.4637 21.8938 56.6072 13.8041C62.2863 2.71641 59.7966 15.264 59.7966 21.5004C59.7966 31.1121 58.5486 40.6092 58.5486 50.2054C58.5486 54.7485 56.6557 55.1961 57.4392 50.6908C58.3829 45.2645 62.2862 38.5005 66.0369 34.5356C67.4291 33.0638 70.5457 27.8099 72.5544 27.7406C123.09 25.998 173.973 26.4926 224.539 26.4926C257.023 26.4926 289.384 25.2446 321.886 25.2446C327.617 25.2446 333.351 25.1943 339.081 25.2446C342.925 25.2783 364.164 29.4989 366.538 25.9379C367.499 24.4966 367.636 16.7856 369.866 16.7856C371.274 16.7856 370.56 42.1141 370.56 45.0053C370.56 55.0092 372.753 46.4134 375.552 41.1918C379.968 32.9538 383.268 24.1869 387.894 16.0922C388.57 14.9081 388.024 18.8206 387.963 20.183C387.64 27.4616 386.479 34.6396 385.814 41.8851C384.487 56.3272 394.368 35.2071 396.491 31.2074C398.566 27.3007 399.53 22.6233 401.761 18.8657C402.233 18.0712 403.041 30.6831 403.078 31.9701C403.202 36.2493 402.928 43.1376 406.198 46.6C406.482 46.8997 407.303 41.4828 407.516 40.8451C409.376 35.2647 413.588 32.8519 419.234 34.5356C428.867 37.4086 437.92 37.725 447.939 37.725" stroke="#E19427" stroke-width="3" stroke-linecap="round"/>
</svg>
