<svg width="30" height="30" viewBox="0 0 30 30" fill="none" xmlns="http://www.w3.org/2000/svg">
<path d="M6.98313 9.63965H0.960557C0.693266 9.63965 0.476685 9.8568 0.476685 10.1246V29.5151C0.476685 29.783 0.693266 30 0.960557 30H6.98313C7.25042 30 7.467 29.783 7.467 29.5151V10.1246C7.467 9.8568 7.25042 9.63965 6.98313 9.63965Z" fill="#F4F4F4"/>
<path d="M3.97414 0C1.78278 0 0 1.78477 0 3.97853C0 6.17326 1.78278 7.9587 3.97414 7.9587C6.16376 7.9587 7.94509 6.17316 7.94509 3.97853C7.94519 1.78477 6.16376 0 3.97414 0Z" fill="#F4F4F4"/>
<path d="M22.3018 9.15771C19.883 9.15771 18.0949 10.1998 17.0103 11.384V10.1246C17.0103 9.8568 16.7937 9.63965 16.5264 9.63965H10.7588C10.4915 9.63965 10.2749 9.8568 10.2749 10.1246V29.5151C10.2749 29.783 10.4915 30 10.7588 30H16.7682C17.0355 30 17.2521 29.783 17.2521 29.5151V19.9213C17.2521 16.6884 18.1283 15.4289 20.3769 15.4289C22.8259 15.4289 23.0205 17.448 23.0205 20.0876V29.5152C23.0205 29.7831 23.2371 30.0001 23.5044 30.0001H29.516C29.7833 30.0001 29.9999 29.7831 29.9999 29.5152V18.8792C29.9999 14.072 29.0853 9.15771 22.3018 9.15771Z" fill="#F4F4F4"/>
</svg>
