<svg width="29" height="29" viewBox="0 0 29 29" fill="none" xmlns="http://www.w3.org/2000/svg">
<path d="M14.5 0C6.49186 0 0 6.49186 0 14.5C0 22.5081 6.49186 29 14.5 29C22.5081 29 29 22.5081 29 14.5C29 6.49186 22.5081 0 14.5 0ZM1.85843 15.4063H4.96806C5.03724 16.9109 5.26462 18.2875 5.61777 19.5238H2.85455C2.30124 18.2463 1.96182 16.8589 1.85843 15.4063ZM18.9731 13.5938C18.9049 12.1371 18.7322 10.7573 18.4984 9.47625H21.469C21.8644 10.6921 22.1358 12.0632 22.2177 13.5938H18.9731ZM12.2143 19.5238C11.9585 18.1115 11.833 16.7329 11.8097 15.4063H17.1903C17.1671 16.7329 17.0415 18.1115 16.7857 19.5238H12.2143ZM16.3908 21.3363C15.9659 22.9676 15.3508 24.6305 14.4998 26.297C13.649 24.6305 13.034 22.9676 12.6091 21.3363H16.3908ZM11.8344 13.5938C11.9062 12.1287 12.0915 10.7482 12.3374 9.47625H16.6626C16.9086 10.7482 17.0938 12.1287 17.1656 13.5938H11.8344ZM12.7447 7.66381C13.3111 5.45277 14.0109 3.70827 14.4999 2.63421C14.9889 3.70827 15.6888 5.45277 16.2553 7.66381H12.7447ZM18.1143 7.66381C17.5361 5.26764 16.7937 3.34281 16.2425 2.09877C16.9275 2.58615 19.203 4.38758 20.7553 7.66381H18.1143ZM12.7572 2.09865C12.2061 3.34269 11.4638 5.26758 10.8856 7.66381H8.24434C9.79679 4.38729 12.0725 2.58585 12.7572 2.09865ZM10.5016 9.47631C10.2678 10.7573 10.0951 12.1372 10.027 13.5938H6.78203C6.86389 12.0633 7.13524 10.6922 7.53071 9.47631H10.5016ZM4.97001 13.5938H1.85843C1.96182 12.1411 2.30118 10.7539 2.85449 9.47625H5.63032C5.27457 10.7124 5.04269 12.088 4.97001 13.5938ZM6.78109 15.4063H10.0021C10.0227 16.7352 10.1345 18.1119 10.3715 19.5238H7.53166C7.13288 18.3048 6.86057 16.9333 6.78109 15.4063ZM10.7468 21.3363C11.1914 23.1818 11.8518 25.0681 12.8031 26.9619C12.1611 26.5023 9.82745 24.6666 8.24517 21.3363H10.7468ZM16.1947 26.966C17.1472 25.0708 17.8082 23.1832 18.2532 21.3363H20.7729C19.1954 24.6836 16.8517 26.504 16.1947 26.966ZM18.6286 19.5238C18.8656 18.1119 18.9774 16.7352 18.998 15.4063H22.2196C22.1416 16.9361 21.8737 18.3072 21.4808 19.5238H18.6286ZM24.0316 15.4063H27.1416C27.0381 16.8589 26.6988 18.2462 26.1455 19.5238H23.3819C23.7351 18.2875 23.9624 16.9109 24.0316 15.4063ZM24.0297 13.5938C23.957 12.088 23.7251 10.7124 23.3694 9.47625H26.1456C26.6989 10.7539 27.0382 12.1411 27.1416 13.5938H24.0297ZM25.1713 7.66381H22.7305C21.9203 5.71229 20.8641 4.16854 19.8702 3.02168C22.0444 4.04319 23.8817 5.65772 25.1713 7.66381ZM9.1292 3.02192C8.13539 4.16878 7.07931 5.71247 6.26921 7.66381H3.82865C5.1182 5.65784 6.95527 4.04349 9.1292 3.02192ZM3.82871 21.3363H6.25447C7.05239 23.2679 8.09366 24.8065 9.08061 25.9546C6.92798 24.9318 5.10862 23.3271 3.82871 21.3363ZM19.9198 25.9544C20.9065 24.8064 21.9476 23.2678 22.7454 21.3363H25.1713C23.8915 23.327 22.0723 24.9316 19.9198 25.9544Z" fill="#F4F4F4"/>
</svg>
